<svg width="113" height="29" viewBox="0 0 113 29" fill="none" xmlns="http://www.w3.org/2000/svg">
<path d="M0.930156 28V0.119999H11.0502C13.8502 0.119999 16.0502 0.746665 17.6502 2C19.2502 3.25333 20.0502 4.97333 20.0502 7.16C20.0502 8.44 19.7968 9.57333 19.2902 10.56C18.7835 11.52 18.0768 12.2933 17.1702 12.88C18.6635 13.4933 19.7702 14.3733 20.4902 15.52C21.2102 16.6667 21.5702 18.0667 21.5702 19.72C21.5702 22.3067 20.7568 24.3333 19.1302 25.8C17.5035 27.2667 15.2635 28 12.4102 28H0.930156ZM6.65016 22.76H11.9302C14.5435 22.76 15.8502 21.6667 15.8502 19.48C15.8502 18.44 15.5168 17.64 14.8502 17.08C14.2102 16.4933 13.2902 16.2 12.0902 16.2H6.65016V22.76ZM6.65016 11.08H11.1302C12.1435 11.08 12.9302 10.8133 13.4902 10.28C14.0502 9.74667 14.3302 9.01333 14.3302 8.08C14.3302 7.22667 14.0368 6.56 13.4502 6.08C12.8902 5.6 12.0902 5.36 11.0502 5.36H6.65016V11.08ZM30.9611 28L22.5211 0.119999H28.5211L34.0811 19.2L39.0411 1.76H44.6811L49.6411 19.2L55.2011 0.119999H61.1611L52.7211 28H47.2011L41.4011 8.6H42.3211L36.5211 28H30.9611ZM74.7733 28.68C71.1733 28.68 68.4533 27.7867 66.6133 26C64.7999 24.2133 63.8933 21.52 63.8933 17.92V0.119999H69.6133V17.28C69.6133 18.64 69.7466 19.7733 70.0133 20.68C70.2799 21.5867 70.7866 22.2667 71.5333 22.72C72.3066 23.1733 73.3866 23.4 74.7733 23.4C76.1599 23.4 77.2133 23.1733 77.9333 22.72C78.6799 22.2667 79.1999 21.5867 79.4933 20.68C79.7866 19.7733 79.9333 18.6533 79.9333 17.32V0.119999H85.6533V17.72C85.6533 21.4 84.7333 24.1467 82.8933 25.96C81.0533 27.7733 78.3466 28.68 74.7733 28.68ZM90.4614 28V0.119999H99.9814C102.275 0.119999 104.115 0.453332 105.501 1.12C106.915 1.78667 107.941 2.73333 108.581 3.96C109.248 5.18667 109.581 6.62667 109.581 8.28C109.581 10.92 108.821 12.9467 107.301 14.36C105.808 15.7733 103.688 16.56 100.941 16.72C100.248 16.72 99.5681 16.72 98.9014 16.72C98.2347 16.72 97.6881 16.72 97.2614 16.72H96.1814V28H90.4614ZM105.461 28L98.5414 16.08L104.421 15.4L112.101 28H105.461ZM96.1814 11.6H99.3814C100.155 11.6 100.875 11.52 101.541 11.36C102.235 11.2 102.781 10.8933 103.181 10.44C103.608 9.96 103.821 9.26667 103.821 8.36C103.821 7.42667 103.608 6.74667 103.181 6.32C102.781 5.86667 102.235 5.57333 101.541 5.44C100.875 5.30667 100.155 5.24 99.3814 5.24H96.1814V11.6Z" fill="#FF002B"/>
</svg>
